<svg xmlns="http://www.w3.org/2000/svg" width="2000" height="2000" enable-background="new 0 0 2000 2000" viewBox="0 0 2000 2000"><path d="M1018.1348 1026.7168c-81.6211 0-158.3562-31.7852-216.0696-89.5-57.7129-57.7148-89.4968-134.4502-89.4968-216.0723 0-81.6201 31.7839-158.3555 89.4968-216.0703 57.7136-57.7148 134.4487-89.5 216.0696-89.5 81.6221 0 158.3584 31.7852 216.0732 89.5 57.7139 57.7148 89.498 134.4502 89.498 216.0703 0 81.6221-31.7842 158.3584-89.498 216.0723C1176.4937 994.9316 1099.7573 1026.7168 1018.1348 1026.7168zM1018.1348 475.5742c-135.4058 0-245.5664 110.1621-245.5664 245.5703 0 135.4092 110.1606 245.5723 245.5664 245.5723 135.4082 0 245.5713-110.1631 245.5713-245.5723C1263.7061 585.7363 1153.543 475.5742 1018.1348 475.5742zM1018.1348 353.4434c-16.5686 0-30-13.4316-30-30v-85.7422c0-16.5684 13.4314-30 30-30s30 13.4316 30 30v85.7422C1048.1348 340.0117 1034.7034 353.4434 1018.1348 353.4434zM784.3958 429.4004c-9.2776 0-18.4248-4.2881-24.2952-12.3682l-50.3984-69.3672c-9.7388-13.4043-6.7673-32.166 6.637-41.9043 13.4036-9.7393 32.165-6.7686 41.9041 6.6367l50.3984 69.3672c9.7388 13.4043 6.7673 32.166-6.637 41.9043C796.6804 427.5371 790.5093 429.4004 784.3958 429.4004zM639.9075 628.2559c-3.0728 0-6.1956-.4746-9.2761-1.4756l-81.5518-26.4961c-15.7576-5.1201-24.3816-22.0449-19.262-37.8018 5.1199-15.7578 22.0444-24.3828 37.802-19.2627l81.5518 26.4961c15.7576 5.1201 24.3816 22.0449 19.262 37.8018C664.3145 620.1953 652.5527 628.2559 639.9075 628.2559zM558.3435 900.5449c-12.6465 0-24.4063-8.0596-28.5256-20.7373-5.1199-15.7578 3.5037-32.6826 19.2612-37.8018l81.5469-26.4961c15.7573-5.1201 32.6821 3.5039 37.8022 19.2607 5.1199 15.7578-3.5037 32.6826-19.2612 37.8018l-81.5469 26.4961C564.5405 900.0693 561.4155 900.5449 558.3435 900.5449zM733.948 1142.2588c-6.1145 0-12.2827-1.8623-17.6079-5.7305-13.4048-9.7383-16.377-28.5-6.6387-41.9043l50.3965-69.3701c9.7383-13.4043 28.4993-16.376 41.9038-6.6387 13.4048 9.7383 16.377 28.5 6.6387 41.9043l-50.3965 69.3701C752.3743 1137.9688 743.2246 1142.2588 733.948 1142.2588zM1018.1367 1234.5859c-16.5684.001-30.0007-13.4297-30.002-29.998l-.0059-85.7383c-.0012-16.5684 13.4294-30.001 29.998-30.002 16.5684-.001 30.0007 13.4297 30.002 29.998l.0059 85.7383C1048.136 1221.1523 1034.7053 1234.585 1018.1367 1234.5859zM1302.3203 1142.2588c-9.2764 0-18.4224-4.2871-24.293-12.3662l-50.4063-69.3623c-9.7402-13.4023-6.771-32.1641 6.6323-41.9043 13.4033-9.7412 32.1646-6.7715 41.9048 6.6328l50.4063 69.3613c9.7402 13.4033 6.771 32.165-6.6323 41.9053C1314.6074 1140.3945 1308.4351 1142.2588 1302.3203 1142.2588zM1477.9219 900.5449c-3.0718 0-6.1958-.4756-9.2754-1.4756l-81.5449-26.4922c-15.7578-5.1191-24.3818-22.0439-19.2627-37.8018 5.1196-15.7568 22.0435-24.3809 37.8018-19.2627l81.5449 26.4922c15.7578 5.1191 24.3818 22.0439 19.2627 37.8018C1502.3291 892.4844 1490.5684 900.5449 1477.9219 900.5449zM1396.3652 628.2578c-12.6465 0-24.4058-8.0586-28.5254-20.7363-5.1206-15.7578 3.5024-32.6826 19.2598-37.8027l81.5449-26.498c15.7593-5.1221 32.6826 3.5029 37.8027 19.2598 5.1206 15.7578-3.5024 32.6826-19.2598 37.8027l-81.5449 26.498C1402.563 627.7822 1399.437 628.2578 1396.3652 628.2578zM1251.8765 429.4004c-6.1133 0-12.2827-1.8623-17.6069-5.7305-13.4053-9.7373-16.3774-28.499-6.6396-41.9033l50.3945-69.3711c9.7373-13.4043 28.499-16.3779 41.9033-6.6396 13.4053 9.7373 16.3774 28.499 6.6396 41.9033l-50.3945 69.3711C1270.3032 425.1104 1261.1543 429.4004 1251.8765 429.4004zM1696 1472.2578h-87.998c-16.5684 0-30-13.4316-30-30s13.4316-30 30-30H1696c16.5684 0 30 13.4316 30 30S1712.5684 1472.2578 1696 1472.2578zM1478.0039 1472.2578H750c-16.5686 0-30-13.4316-30-30s13.4314-30 30-30h728.0039c16.5684 0 30 13.4316 30 30S1494.5723 1472.2578 1478.0039 1472.2578zM600 1472.2578H304c-16.5686 0-30-13.4316-30-30s13.4314-30 30-30h296c16.5686 0 30 13.4316 30 30S616.5686 1472.2578 600 1472.2578zM1525.0762 1632.2773H932.4883c-16.5686 0-30-13.4316-30-30s13.4314-30 30-30h592.5879c16.5684 0 30 13.4316 30 30S1541.6445 1632.2773 1525.0762 1632.2773zM809.498 1632.2773H474.9229c-16.5686 0-30-13.4316-30-30s13.4314-30 30-30H809.498c16.5686 0 30 13.4316 30 30S826.0667 1632.2773 809.498 1632.2773zM1396.3711 1792.2988h-150.3887c-16.5684 0-30-13.4316-30-30s13.4316-30 30-30h150.3887c16.5684 0 30 13.4316 30 30S1412.9395 1792.2988 1396.3711 1792.2988zM1124.4785 1792.2988H603.6279c-16.5686 0-30-13.4316-30-30s13.4314-30 30-30h520.8506c16.5684 0 30 13.4316 30 30S1141.0469 1792.2988 1124.4785 1792.2988z"/></svg>