<svg xmlns="http://www.w3.org/2000/svg" width="16.081" height="38.01" viewBox="0 0 16.081 38.01">
    <g data-name="Group 64">
        <path data-name="Path 364" d="M48.117 50.239V29.462a1.462 1.462 0 1 0-2.924 0v20.777a3.655 3.655 0 1 0 2.924 0zm-1.462 4.076a.731.731 0 1 1 .731-.731.731.731 0 0 1-.731.73z" transform="translate(-38.614 -23.614)" style="fill:#fffbfb"/>
        <path data-name="Path 365" d="m50.895 46.457-.007-18.609a5.848 5.848 0 0 0-11.7 0l-.007 18.61a8.041 8.041 0 1 0 11.709 0zm-5.854 10.629a5.117 5.117 0 0 1-3.416-8.927 1.462 1.462 0 0 0 .485-1.087l.007-19.224a2.924 2.924 0 1 1 5.848 0l.007 19.223a1.459 1.459 0 0 0 .485 1.087 5.117 5.117 0 0 1-3.416 8.927z" transform="translate(-37 -22)" style="fill:#fffbfb"/>
    </g>
</svg>
